<svg width="24" height="24" viewBox="0 0 24 24" fill="none" xmlns="http://www.w3.org/2000/svg">
<rect width="24" height="24" fill="none"/>
<path d="M11.5 21.4501V19.9881C9.41667 19.7934 7.69667 19.0177 6.34 17.661C4.98334 16.3044 4.207 14.584 4.011 12.5H2.55V11.5H4.012C4.20667 9.41672 4.98234 7.69672 6.339 6.34005C7.69567 4.98338 9.416 4.20705 11.5 4.01105V2.55005H12.5V4.01205C14.5833 4.20672 16.3033 4.98238 17.66 6.33905C19.0167 7.69572 19.7927 9.41605 19.988 11.5H21.45V12.5H19.988C19.7933 14.5834 19.0177 16.3034 17.661 17.66C16.3043 19.0167 14.584 19.7931 12.5 19.989V21.451L11.5 21.4501ZM12 19C13.9333 19 15.5833 18.3167 16.95 16.95C18.3167 15.5834 19 13.9334 19 12C19 10.0667 18.3167 8.41672 16.95 7.05005C15.5833 5.68338 13.9333 5.00005 12 5.00005C10.0667 5.00005 8.41667 5.68338 7.05 7.05005C5.68334 8.41672 5 10.0667 5 12C5 13.9334 5.68334 15.5834 7.05 16.95C8.41667 18.3167 10.0667 19 12 19ZM12 15C11.1753 15 10.469 14.7064 9.881 14.119C9.293 13.5317 8.99934 12.8254 9 12C9 11.1754 9.29367 10.469 9.881 9.88105C10.4683 9.29305 11.1747 8.99938 12 9.00005C12.8253 9.00005 13.5317 9.29372 14.119 9.88105C14.7063 10.4684 15 11.1747 15 12C15 12.8254 14.7063 13.5317 14.119 14.119C13.5317 14.7064 12.8253 15 12 15Z" fill="currentColor"/>
</svg>
